<?xml version="1.0" encoding="utf-8"?>
<!-- Generator: Adobe Illustrator 19.1.0, SVG Export Plug-In . SVG Version: 6.00 Build 0)  -->
<svg version="1.1" id="Layer_1" xmlns="http://www.w3.org/2000/svg" xmlns:xlink="http://www.w3.org/1999/xlink" x="0px" y="0px"
	 viewBox="-417 263.7 123.8 34.3" style="enable-background:new -417 263.7 123.8 34.3;" xml:space="preserve">
<style type="text/css">
	.st0{fill:#FCCD03;}
	.st1{fill:#F15A24;}
	.st2{fill:#910909;}
</style>
<g>
	<path class="st0" d="M-396.4,273.2c-2.1-1.5-5-2.5-7.8-3.2c-2.7-0.7-5-1.1-6.7-1.5c-0.8,1.6-1.2,3.1-0.3,4.1c1,1.2,3.5,1.9,8,3.3
		c3.1,0.9,5.9,2,8,3.5c1.5,1.1,2.5,2.7,2.6,4.2c0.1-0.6,0.1-1.2,0.1-1.7c0-1.8-0.4-3.6-1-5.2C-394,275.4-395,274.1-396.4,273.2"/>
	<path class="st1" d="M-395.3,282.4c-1.7-1.3-3.9-2.3-6.4-3.1c-2.6-0.9-5.2-1.5-7.7-2.1c-2.4-0.5-4.5-1-6.1-1.5
		c-1.4,4.2-1,7.4,1,9.4c1,1,2.5,1.8,4.4,2.5s4.2,1.3,6.8,2.3c1.5,0.6,2.7,1.3,3.4,2.1c0.5,0.7,0.6,1.6,0.3,2.2
		c3.2-1.9,5.7-4.9,6.7-8.6C-393.3,284.5-394.1,283.4-395.3,282.4"/>
	<path class="st2" d="M-406.5,291.1c-1-0.2-4.8-1.2-6.2-2c-0.6,1.7,0.4,3.8,1.2,4.6c0.4,0.4,0.7,1.2,4.4,1.9c2.4,0.5,2.1,1.5,2,1.8
		c1.4-0.2,2.3-0.8,2.8-1.6C-402,295.3-401.1,292.4-406.5,291.1"/>
	<path class="st0" d="M-393.9,273.7c-0.4-1.2-0.9-2.2-1.5-3.2c-0.3-0.5-0.7-1-1.1-1.4s-0.8-0.9-1.2-1.3c-0.4-0.4-0.9-0.8-1.3-1.1
		c-0.4-0.3-0.9-0.6-1.4-0.9c-0.9-0.5-1.8-1-2.8-1.3c-0.7-0.2-2-0.5-2.8-0.2c-0.9,0.3-0.8,1.1,0.3,1.5h0.1c1.4,0.4,2.8,1,4.2,1.6
		c0.7,0.3,1.3,0.7,2,1.1c0.6,0.4,1.2,0.8,1.8,1.2c0.5,0.4,1.1,0.8,1.5,1.3c0.5,0.4,0.9,0.8,1.2,1.2
		C-394.6,272.8-394.2,273.3-393.9,273.7"/>
	<path class="st1" d="M-344.8,297.6c-0.5,0-1-0.1-1.3-0.2c-0.2,0-0.2-0.1-0.2-0.2l0.8-4.4l0.2-0.1h0.7l0.1,0.1l-0.2,1.1
		c0.2,0,0.4,0,0.5,0c1,0,1.5,0.6,1.3,1.6l-0.1,0.5C-343.2,297-343.8,297.6-344.8,297.6 M-343.9,295.5c0.1-0.4,0-0.8-0.4-0.8
		c-0.1,0-0.4,0-0.5,0l-0.3,1.9c0.1,0,0.3,0,0.5,0c0.4,0,0.6-0.3,0.7-0.8L-343.9,295.5z"/>
	<path class="st1" d="M-341.1,297.6L-341.1,297.6c-0.5,0-1.6-0.1-1.3-1.6l0.3-1.9l0.1-0.1h0.8l0.1,0.1l-0.3,1.9
		c-0.1,0.6,0.1,0.7,0.3,0.7h0.1c0.3,0,0.5-0.1,0.6-0.7l0.3-1.9l0.1-0.1h0.8l0.1,0.1l-0.3,1.9C-339.6,297.4-340.7,297.6-341.1,297.6"
		/>
	<path class="st1" d="M-337.7,297.6c-0.3,0-0.8,0-1.1-0.1l-0.1-0.1l0.1-0.5l0.1-0.1l0,0c0.3,0,0.8,0.1,1,0.1c0.3,0,0.4-0.1,0.4-0.2
		s0-0.2-0.2-0.3l-0.7-0.5c-0.3-0.2-0.5-0.5-0.4-0.9c0.1-0.6,0.6-1,1.4-1c0.5,0,0.8,0.1,1.1,0.1l0.1,0.1l-0.1,0.5l-0.1,0.1l0,0
		c-0.2,0-0.7-0.1-1-0.1c-0.2,0-0.3,0-0.4,0.2c0,0.1,0,0.1,0.2,0.2l0.7,0.4c0.5,0.3,0.5,0.6,0.5,1
		C-336.3,297.1-336.8,297.6-337.7,297.6"/>
	<path class="st1" d="M-334.1,293.5h-0.8l-0.1-0.1l0.1-0.6l0.1-0.1h0.8l0.1,0.1l-0.1,0.6 M-334.9,297.5h-0.8l-0.1-0.1l0.6-3.3
		l0.1-0.1h0.8l0.1,0.1l-0.6,3.3L-334.9,297.5"/>
	<path class="st1" d="M-331,297.5h-0.8l-0.1-0.1l0.4-2.2c0-0.3,0-0.5-0.3-0.5h-0.3c-0.3,0-0.4,0.2-0.4,0.5l-0.4,2.2l-0.2,0.1h-0.8
		l-0.1-0.1l0.4-2.2c0.2-0.9,0.7-1.3,1.6-1.3h0.3c0.9,0,1.3,0.4,1.1,1.3l-0.4,2.2V297.5"/>
	<path class="st1" d="M-327.1,296h-2l0,0c-0.1,0.4,0,0.7,0.5,0.7c0.4,0,0.9,0,1.2-0.1l0,0l0.1,0.1l-0.1,0.5c0,0.1-0.1,0.1-0.2,0.2
		c-0.4,0.1-0.8,0.1-1.3,0.1c-0.8,0-1.5-0.4-1.3-1.6l0.1-0.4c0.2-1,0.9-1.6,1.9-1.6s1.4,0.7,1.3,1.6l-0.1,0.4L-327.1,296
		 M-327.8,295.4c0.1-0.5-0.1-0.7-0.4-0.7c-0.3,0-0.6,0.2-0.7,0.7l0,0H-327.8L-327.8,295.4z"/>
	<path class="st1" d="M-325.4,297.6c-0.3,0-0.8,0-1.1-0.1l-0.1-0.1l0.1-0.5l0.1-0.1l0,0c0.3,0,0.8,0.1,1,0.1c0.3,0,0.4-0.1,0.4-0.2
		s0-0.2-0.2-0.3l-0.7-0.5c-0.3-0.2-0.5-0.5-0.4-0.9c0.1-0.6,0.6-1,1.4-1c0.5,0,0.8,0.1,1.1,0.1l0.1,0.1l-0.1,0.5l-0.1,0.1l0,0
		c-0.2,0-0.7-0.1-1-0.1c-0.2,0-0.3,0-0.4,0.2c0,0.1,0,0.1,0.2,0.2l0.7,0.4c0.5,0.3,0.5,0.6,0.5,1
		C-324,297.1-324.5,297.6-325.4,297.6"/>
	<path class="st1" d="M-322.3,297.6c-0.3,0-0.8,0-1.1-0.1l-0.1-0.1l0.1-0.5l0.1-0.1l0,0c0.3,0,0.8,0.1,1,0.1c0.3,0,0.4-0.1,0.4-0.2
		s0-0.2-0.2-0.3l-0.7-0.5c-0.3-0.2-0.5-0.5-0.4-0.9c0.1-0.6,0.6-1,1.4-1c0.5,0,0.8,0.1,1.1,0.1l0.1,0.1l-0.1,0.5l-0.1,0.1l0,0
		c-0.2,0-0.7-0.1-1-0.1c-0.2,0-0.3,0-0.4,0.2c0,0.1,0,0.1,0.2,0.2l0.7,0.4c0.5,0.3,0.5,0.6,0.5,1
		C-320.8,297.1-321.3,297.6-322.3,297.6"/>
	<path class="st1" d="M-316.3,294.7h-0.8l-0.3,1.8c0,0.2,0.1,0.3,0.3,0.3h0.5l0.1,0.1l-0.1,0.5l-0.1,0.1c-0.2,0-0.5,0.1-0.8,0.1
		c-0.7,0-1.1-0.2-0.9-1l0.5-3.1l0.1-0.1l0.8-0.1l0,0l0.1,0.1l-0.1,0.7h0.8l0.1,0.1l-0.1,0.5H-316.3"/>
	<path class="st1" d="M-313.1,296h-2l0,0c-0.1,0.4,0,0.7,0.5,0.7c0.4,0,1,0,1.2-0.1l0,0l0.1,0.1l-0.1,0.5c0,0.1,0,0.1-0.2,0.2
		c-0.4,0.1-0.8,0.1-1.3,0.1c-0.8,0-1.5-0.4-1.3-1.6l0.1-0.4c0.2-1,0.9-1.6,1.9-1.6s1.4,0.7,1.2,1.6L-313.1,296L-313.1,296
		 M-313.8,295.4c0.1-0.5-0.1-0.7-0.4-0.7c-0.3,0-0.6,0.2-0.7,0.7l0,0H-313.8L-313.8,295.4z"/>
	<polyline class="st1" points="-311.6,297.5 -312.4,297.5 -312.5,297.4 -311.7,292.9 -311.6,292.7 -310.8,292.7 -310.7,292.9 
		-311.5,297.4 	"/>
	<path class="st1" d="M-307.6,296h-2l0,0c-0.1,0.4,0,0.7,0.5,0.7c0.4,0,1,0,1.2-0.1l0,0l0.1,0.1l-0.1,0.5c0,0.1-0.1,0.1-0.2,0.2
		c-0.4,0.1-0.8,0.1-1.3,0.1c-0.7,0-1.5-0.4-1.3-1.6l0.1-0.4c0.2-1,0.9-1.6,1.9-1.6s1.4,0.7,1.2,1.6L-307.6,296L-307.6,296
		 M-308.4,295.4c0.1-0.5-0.1-0.7-0.4-0.7c-0.3,0-0.6,0.2-0.7,0.7l0,0H-308.4L-308.4,295.4z"/>
	<path class="st1" d="M-304.9,297.5c-0.2,0-0.5,0.1-0.8,0.1c-0.9,0-1.3-0.6-1.2-1.6l0.1-0.5c0.2-1,0.8-1.6,1.7-1.6
		c0.4,0,0.6,0,0.8,0.1l0.1,0.1l-0.1,0.5l-0.1,0.1l0,0c-0.2,0-0.4,0-0.7,0c-0.3,0-0.5,0.2-0.6,0.7l-0.1,0.5c-0.1,0.6,0.1,0.7,0.4,0.7
		c0.4,0,0.5,0,0.8,0l0,0l0.1,0.1l-0.1,0.6L-304.9,297.5"/>
	<path class="st1" d="M-302.9,297.6c-1,0-1.4-0.6-1.3-1.6l0.1-0.4c0.2-1,0.8-1.6,1.8-1.6s1.4,0.6,1.3,1.6l-0.1,0.4
		C-301.3,296.9-301.9,297.6-302.9,297.6 M-302,295.5c0.1-0.5-0.1-0.8-0.4-0.8c-0.4,0-0.6,0.3-0.7,0.8l-0.1,0.4
		c-0.1,0.5,0.1,0.8,0.4,0.8c0.4,0,0.6-0.3,0.7-0.8L-302,295.5z"/>
	<path class="st1" d="M-296.2,297.5h-0.8l-0.1-0.1l0.4-2.2c0.1-0.4,0-0.5-0.3-0.5h-0.1c-0.3,0-0.4,0.2-0.4,0.5l-0.4,2.2l-0.1,0.1
		h-0.8l-0.1-0.1l0.4-2.2c0-0.3,0-0.5-0.3-0.5h-0.1c-0.3,0-0.4,0.1-0.4,0.5l-0.4,2.2l-0.2,0.1h-0.8l-0.1-0.1l0.4-2.2
		c0.2-0.9,0.7-1.3,1.6-1.3h0.1c0.4,0,0.6,0.1,0.8,0.3c0.2-0.2,0.5-0.3,0.9-0.3h0.1c0.9,0,1.3,0.4,1.1,1.3l-0.4,2.2V297.5"/>
	<path d="M-371.6,273.5l-2.8,16c0,0.2-0.3,0.5-0.5,0.5h-3c-0.2,0-0.4-0.2-0.4-0.4v-0.1l1.1-6.6h-5.6l-1.1,6.6c0,0.2-0.3,0.5-0.5,0.5
		h-3c-0.2,0-0.4-0.2-0.4-0.4v-0.1l2.8-16c0-0.3,0.3-0.4,0.5-0.4h3c0.2,0,0.4,0.1,0.4,0.4v0.1l-1.1,6h5.6l1.1-6
		c0-0.3,0.3-0.4,0.5-0.4h3C-371.7,273-371.6,273.2-371.6,273.5"/>
	<path d="M-359.2,282.6l-0.3,1.6c-0.7,3.9-2.7,5.9-6.7,5.9c-3.1,0-4.8-2-4.8-4.6c0-0.4,0-0.8,0.1-1.3l0.3-1.6c0.8-4.1,3-5.9,6.7-5.9
		c3.1,0,4.8,1.8,4.8,4.6C-359.1,281.7-359.2,282.4-359.2,282.6 M-364.4,279.9c-1.3,0-2.2,0.8-2.5,2.8l-0.3,1.6
		c-0.1,0.4-0.1,0.8-0.1,1.1c0,1.2,0.5,1.7,1.7,1.7c1.5,0,2.2-1,2.5-2.8l0.3-1.6c0.1-0.4,0.1-0.7,0.1-1
		C-362.7,280.4-363.3,279.9-364.4,279.9"/>
	<path d="M-349.5,277.2l-0.4,2.2c0,0.3-0.3,0.4-0.7,0.4c-0.7,0-1.6,0-2.1,0.1l-1.7,9.5c0,0.3-0.3,0.5-0.5,0.5h-2.7
		c-0.2,0-0.4-0.2-0.4-0.4v-0.1l2-11.3c0-0.3,0.3-0.5,0.8-0.7c1.5-0.5,3-0.7,5.1-0.7C-349.8,276.7-349.5,276.8-349.5,277.2"/>
	<path d="M-343.9,277.4l-2.1,12.1c0,0.2-0.3,0.5-0.5,0.5h-2.8c-0.2,0-0.4-0.2-0.4-0.4v-0.1l2.1-12.1c0-0.2,0.3-0.5,0.5-0.5h2.8
		C-344,276.9-343.9,277.1-343.9,277.4 M-343,272.9l-0.4,2.1c0,0.3-0.3,0.5-0.5,0.5h-3c-0.2,0-0.4-0.2-0.4-0.4V275l0.4-2.1
		c0-0.3,0.3-0.5,0.5-0.5h3C-343.2,272.4-343,272.6-343,272.9L-343,272.9z"/>
	<path d="M-331.8,277.5v0.1l-0.3,1.7c0,0.2-0.1,0.5-0.4,0.8l-5.7,6.4l-0.1,0.2l0.1,0.1h4.3c0.2,0,0.3,0.1,0.3,0.3v0.1l-0.4,2.3
		c0,0.2-0.3,0.5-0.5,0.5h-8.5c-0.4,0-0.6-0.3-0.6-0.6v-0.1l0.3-1.5c0-0.3,0.2-0.5,0.5-0.9l5.9-6.7l0.1-0.2l-0.1-0.1h-4.4
		c-0.2,0-0.3-0.1-0.3-0.3v-0.1l0.4-2.1c0-0.2,0.3-0.5,0.5-0.5h8.3C-332.1,276.9-331.8,277.2-331.8,277.5"/>
	<path d="M-319.3,282.6l-0.3,1.6c-0.7,3.9-2.7,5.9-6.7,5.9c-3.1,0-4.8-2-4.8-4.6c0-0.4,0-0.8,0.1-1.3l0.3-1.6c0.8-4.1,3-5.9,6.7-5.9
		c3.1,0,4.8,1.8,4.8,4.6C-319.2,281.7-319.2,282.4-319.3,282.6 M-324.5,279.9c-1.3,0-2.2,0.8-2.5,2.8l-0.3,1.6
		c-0.1,0.4-0.1,0.8-0.1,1.1c0,1.2,0.5,1.7,1.7,1.7c1.5,0,2.2-1,2.5-2.8l0.3-1.6c0.1-0.4,0.1-0.7,0.1-1
		C-322.8,280.4-323.4,279.9-324.5,279.9"/>
	<path d="M-305.7,281.7l-1.4,7.7c0,0.2-0.3,0.5-0.5,0.5h-2.8c-0.2,0-0.4-0.2-0.4-0.4v-0.1l1.4-8c0-0.3,0.1-0.5,0.1-0.7
		c0-0.6-0.2-1-1.1-1h-1.1c-1.2,0-1.4,0.6-1.6,1.7l-1.4,8c0,0.2-0.3,0.5-0.5,0.5h-2.8c-0.2,0-0.4-0.2-0.4-0.4v-0.1l1.5-8.3
		c0.5-3.1,2.5-4.5,5.8-4.5h1.1c2.8,0,4.3,1.4,4.3,3.7C-305.6,280.9-305.6,281.3-305.7,281.7"/>
	<path d="M-293.7,277.8l-0.3,1.8c0,0.3-0.2,0.4-0.5,0.4h-0.1c-0.6-0.1-2.6-0.3-3.7-0.3h-0.1c-0.6,0-1.2,0-1.2,0.8
		c0,0.3,0.2,0.5,0.5,0.7l2.5,1.6c1.4,0.9,1.8,1.9,1.8,2.8c0,3.3-2.7,4.5-5.6,4.5c-1.2,0-2.9-0.2-4-0.5c-0.2-0.1-0.3-0.2-0.3-0.4
		v-0.1l0.3-1.8c0-0.3,0.2-0.4,0.5-0.4h0.1c1.2,0.2,2.8,0.3,3.8,0.3c0.8,0,1.5-0.1,1.5-1c0-0.3-0.2-0.6-0.7-0.9l-2.7-1.7
		c-1-0.7-1.5-1.7-1.5-2.7c0-3.2,2.6-4.1,5.3-4.1c1.6,0,2.8,0.2,4,0.5c0.2,0.1,0.3,0.2,0.3,0.4"/>
</g>
</svg>
